<svg xmlns="http://www.w3.org/2000/svg" width="150.475" height="24.613" viewBox="0 0 150.475 24.613">
    <g data-name="Group 15">
        <path data-name="Path 13" d="m125.805 202.364-2.654-1.119c-1.857-.75-3.26-1.3-3.016-2.075.138-.432.991-.719 3.536-.723a42.231 42.231 0 0 1 7.97.87l.356-3.658a46 46 0 0 0-8.2-.861 30.759 30.759 0 0 0-4.875.253c-2.366.339-6.367 1.378-6.566 4.7-.206 3.4 3.837 4.887 6.307 5.919l2.049.818c2.335.942 3.432 1.285 3.4 1.979-.04.763-1.657.887-3.858.817a60.931 60.931 0 0 1-7.981-.885l-.248 3.934a76.778 76.778 0 0 0 8.9.635c.351.009.7.013 1.048.013 4.319 0 9.585-.678 10.162-4.3.53-3.318-2.941-4.8-6.322-6.319" style="fill:#fff" transform="translate(-72.908 -188.583)"/>
        <path data-name="Path 14" d="M140.573 202.1a4.507 4.507 0 0 1 4.785-3.766c4.41.038 4.12 3.766 4.12 3.766zm14.8 3.335c1.489-8.5-6.007-10.161-7.763-10.429a17.061 17.061 0 0 0-2.1-.155c-7.873-.069-11.807 4.922-12.14 9.057-.3 3.747 1.113 9.288 12.678 9.288a29.705 29.705 0 0 0 8.143-.967l.57-3.639a38.877 38.877 0 0 1-7.813.872c-.12 0-.233-.006-.349-.006-5.253-.182-6.3-2.775-6.307-3.964 0 0 0-.023-.006-.056z" style="fill:#fff" transform="translate(-72.908 -188.583)"/>
        <path data-name="Path 15" d="M208.393 202.1a4.506 4.506 0 0 1 4.784-3.766c4.41.038 4.119 3.766 4.119 3.766zm14.8 3.335c1.488-8.5-6.007-10.161-7.763-10.429a17.052 17.052 0 0 0-2.1-.155c-7.873-.069-11.808 4.922-12.139 9.057-.3 3.747 1.112 9.288 12.677 9.288a29.714 29.714 0 0 0 8.143-.967c.122-.787.375-2.4.569-3.639a38.855 38.855 0 0 1-7.812.872c-.119 0-.233-.006-.349-.006-5.253-.182-6.3-2.775-6.306-3.964 0 0 0-.023-.006-.056z" style="fill:#fff" transform="translate(-72.908 -188.583)"/>
        <path data-name="Path 16" d="M171.539 201.246c-.194 3.131-.735 11.575-.735 11.575h6.922l.743-11.756c.332-5.339-3.423-5.734-5.907-5.993a39.087 39.087 0 0 0-3.292-.124c-.467 0-.967.006-1.486.024-4.307.148-9.778.79-9.778.79l-1.086 17.06h6.949l.845-13.847a28.382 28.382 0 0 1 4.409-.271c.659.029 2.576 0 2.416 2.544" style="fill:#fff" transform="translate(-72.908 -188.583)"/>
        <path data-name="Path 17" d="M109.417 188.583h-5.749l-.348 4.629h7.42s.189-2.638.217-3.082c.065-1.038-.348-1.547-1.54-1.547" style="fill:#fff" transform="translate(-72.908 -188.583)"/>
        <path data-name="Path 18" d="m193.7 202.362-2.654-1.12c-1.857-.749-3.26-1.3-3.016-2.075.138-.432.99-.719 3.537-.723a42.193 42.193 0 0 1 7.97.871l.355-3.659a46.083 46.083 0 0 0-8.2-.86 30.831 30.831 0 0 0-4.876.253c-2.365.339-6.366 1.377-6.565 4.7-.206 3.4 3.837 4.888 6.308 5.919l2.048.817c2.335.941 3.432 1.285 3.4 1.98-.041.762-1.657.886-3.858.817a60.927 60.927 0 0 1-7.981-.885l-.248 3.935a77.05 77.05 0 0 0 8.9.635c.35.009.7.013 1.047.013 4.32 0 9.586-.677 10.163-4.3.529-3.317-2.941-4.8-6.322-6.319" style="fill:#fff" transform="translate(-72.908 -188.583)"/>
        <path data-name="Path 19" d="m93.23 188.583-.655 8.482H81.714l.535-6.935c.018-1.492-1.237-1.547-1.861-1.547h-5.6l-1.877 24.27h7.586l.829-10.725h10.857l-.828 10.725h7.561l1.873-24.27z" style="fill:#fff" transform="translate(-72.908 -188.583)"/>
        <path data-name="Path 20" d="m103.135 195.194-1.35 17.66h7.415l1.356-17.66z" style="fill:#fff" transform="translate(-72.908 -188.583)"/>
    </g>
</svg>
