<?xml version="1.0" encoding="utf-8"?>
<!-- Generator: Adobe Illustrator 24.0.3, SVG Export Plug-In . SVG Version: 6.00 Build 0)  -->
<svg version="1.1" id="icons" xmlns="http://www.w3.org/2000/svg" xmlns:xlink="http://www.w3.org/1999/xlink" x="0px" y="0px"
	 viewBox="0 0 64 64" style="enable-background:new 0 0 64 64;" xml:space="preserve">
<path d="M59.5,50h3c0.5,0,1-0.4,1-1V13.6c0-0.5-0.4-1-1-1h-61c-0.5,0-1,0.4-1,1V49c0,0.5,0.4,1,1,1h3 M16.3,50h31.5 M6.4,50h7.9
	 M49.7,50h7.9 M61.5,48h-59V14.6h59V48z"/>
<path d="M5.5,46.1h41.3c0.5,0,1-0.4,1-1V17.6c0-0.5-0.4-1-1-1H5.5c-0.5,0-1,0.4-1,1v27.5C4.5,45.6,4.9,46.1,5.5,46.1z M44.8,28.4h1
	v5.9h-1V28.4z M6.4,18.5h39.3v7.9h-2c-0.5,0-1,0.4-1,1v7.9c0,0.5,0.4,1,1,1h2v7.9H6.4V18.5z"/>
<path d="M50.7,30.3L50.7,30.3c-0.6,0-1,0.4-1,1c0,0.5,0.4,1,1,1c0.5,0,1-0.4,1-1C51.7,30.8,51.3,30.3,50.7,30.3z"/>
<path d="M54.6,30.3L54.6,30.3c-0.6,0-1,0.4-1,1c0,0.5,0.4,1,1,1c0.5,0,1-0.4,1-1C55.6,30.8,55.2,30.3,54.6,30.3z"/>
<path d="M58.6,30.3L58.6,30.3c-0.6,0-1,0.4-1,1c0,0.5,0.4,1,1,1c0.5,0,1-0.4,1-1C59.6,30.8,59.1,30.3,58.6,30.3L58.6,30.3z"/>
<path d="M50.7,34.3L50.7,34.3c-0.6,0-1,0.4-1,1s0.4,1,1,1c0.5,0,1-0.4,1-1S51.3,34.3,50.7,34.3z"/>
<path d="M54.6,34.3L54.6,34.3c-0.6,0-1,0.4-1,1s0.4,1,1,1c0.5,0,1-0.4,1-1S55.2,34.3,54.6,34.3z"/>
<path d="M58.6,34.3L58.6,34.3c-0.6,0-1,0.4-1,1s0.4,1,1,1c0.5,0,1-0.4,1-1S59.1,34.3,58.6,34.3L58.6,34.3z"/>
<path d="M50.7,38.2L50.7,38.2c-0.6,0-1,0.4-1,1s0.4,1,1,1c0.5,0,1-0.4,1-1S51.3,38.2,50.7,38.2z"/>
<path d="M54.6,38.2L54.6,38.2c-0.6,0-1,0.4-1,1s0.4,1,1,1c0.5,0,1-0.4,1-1S55.2,38.2,54.6,38.2z"/>
<path d="M58.6,38.2L58.6,38.2c-0.6,0-1,0.4-1,1s0.4,1,1,1c0.5,0,1-0.4,1-1S59.1,38.2,58.6,38.2L58.6,38.2z"/>
<path d="M50.7,28.4h7.9c0.5,0,1-0.4,1-1v-4.9c0-0.5-0.4-1-1-1h-7.9c-0.5,0-1,0.4-1,1v4.9C49.7,27.9,50.1,28.4,50.7,28.4L50.7,28.4z
	 M51.7,23.5h5.9v3h-5.9V23.5z"/>
</svg>
