<svg xmlns="http://www.w3.org/2000/svg" version="1.0" width="1200.000000pt" height="1200.000000pt" viewBox="0 0 1200.000000 1200.000000" preserveAspectRatio="xMidYMid meet">
<metadata>
Created by potrace 1.11, written by Peter Selinger 2001-2013
</metadata>
<g transform="translate(0.000000,1200.000000) scale(0.100000,-0.100000)" fill="#000000" stroke="none">
<path d="M6815 9282 c-33 -1 -177 -3 -320 -5 -252 -2 -260 -3 -261 -22 -3 -52 -20 -296 -29 -410 -3 -38 -8 -104 -10 -145 -3 -41 -7 -102 -10 -135 -2 -33 -7 -96 -10 -140 -22 -323 -25 -366 -30 -425 -5 -60 -11 -145 -20 -285 -4 -49 -8 -106 -10 -125 -2 -19 -6 -82 -10 -140 -4 -58 -8 -121 -10 -140 -2 -19 -6 -84 -10 -145 -7 -98 -11 -149 -14 -165 -1 -3 -193 -6 -428 -7 -370 -1 -2315 -4 -2366 -3 -10 0 -16 3 -14 8 3 4 8 52 11 107 4 55 9 120 11 145 2 25 6 86 10 135 3 50 8 115 10 145 3 30 7 93 10 140 3 47 8 105 10 130 2 25 7 90 10 145 3 55 8 123 10 150 2 28 7 93 11 145 3 52 8 111 9 130 1 19 6 82 10 140 4 58 9 121 11 140 13 141 12 280 -2 340 -30 133 -121 222 -264 259 -72 19 -110 20 -863 19 l-787 -1 -2 -21 c0 -12 -2 -32 -3 -46 -1 -14 -6 -70 -9 -125 -4 -55 -9 -120 -11 -145 -3 -25 -7 -88 -10 -140 -3 -52 -8 -113 -10 -135 -2 -22 -6 -85 -10 -140 -3 -55 -8 -118 -10 -140 -2 -22 -6 -85 -10 -140 -3 -55 -8 -120 -10 -145 -7 -77 -17 -225 -30 -415 -3 -49 -7 -110 -10 -135 -2 -25 -7 -85 -10 -135 -3 -49 -8 -112 -10 -140 -3 -27 -7 -90 -10 -140 -3 -49 -7 -115 -10 -145 -3 -30 -7 -93 -10 -140 -3 -47 -8 -110 -10 -140 -3 -30 -7 -86 -10 -125 -2 -38 -7 -101 -10 -140 -2 -38 -7 -106 -10 -150 -3 -44 -8 -105 -10 -135 -3 -30 -7 -93 -10 -140 -3 -47 -7 -110 -10 -140 -3 -30 -7 -93 -10 -140 -3 -47 -7 -110 -10 -140 -5 -58 -12 -156 -20 -280 -2 -41 -7 -104 -10 -140 -3 -36 -7 -99 -10 -140 -3 -41 -7 -104 -10 -140 -3 -36 -7 -99 -10 -140 -3 -41 -7 -100 -10 -130 -2 -30 -7 -95 -10 -145 -3 -49 -7 -112 -10 -140 -3 -27 -7 -84 -10 -125 -6 -89 -13 -195 -20 -305 -3 -44 -8 -100 -10 -125 -2 -25 -7 -85 -10 -135 -3 -49 -8 -115 -10 -145 -5 -53 -8 -100 -20 -280 -3 -47 -8 -110 -10 -140 -3 -30 -7 -89 -10 -130 -3 -41 -7 -108 -11 -148 l-5 -73 980 3 c649 2 981 6 982 13 1 5 2 21 4 35 1 14 5 77 9 140 4 63 9 131 11 150 2 19 6 82 10 140 3 58 8 123 10 145 4 40 9 108 21 280 3 50 8 110 10 135 2 25 6 86 9 135 10 139 13 184 19 260 8 96 15 193 21 300 3 50 8 110 10 135 2 25 7 88 10 140 3 52 8 118 10 145 3 28 7 86 10 130 3 44 7 107 10 140 3 33 7 94 10 135 16 248 23 321 30 328 3 3 633 7 1400 9 1413 4 1399 4 1397 -27 -1 -28 -14 -214 -17 -245 -2 -22 -7 -85 -10 -140 -3 -55 -8 -118 -10 -140 -2 -22 -7 -80 -10 -130 -7 -112 -14 -202 -20 -280 -3 -33 -7 -94 -10 -135 -3 -41 -7 -113 -11 -160 -3 -47 -7 -110 -9 -140 -8 -110 -16 -226 -20 -275 -6 -71 -13 -165 -21 -275 -3 -52 -7 -111 -9 -130 -2 -19 -7 -89 -10 -155 -4 -66 -9 -127 -10 -137 -2 -9 -6 -67 -10 -130 -3 -62 -8 -124 -10 -138 -2 -14 -7 -75 -10 -136 l-7 -112 972 3 c534 1 973 5 976 7 7 8 12 56 30 323 6 98 12 180 18 250 5 58 11 145 21 310 3 44 7 100 10 125 2 25 7 88 10 140 4 52 8 115 10 140 2 25 6 86 10 135 3 50 8 118 10 153 3 34 7 90 10 125 2 34 7 98 10 143 10 132 17 231 30 419 12 178 16 225 30 415 2 25 6 88 10 140 3 52 8 122 11 155 2 33 6 96 9 140 3 44 8 103 10 130 2 28 7 88 10 135 3 47 7 112 10 145 6 75 14 178 20 275 3 41 7 104 10 140 7 90 13 180 20 280 7 112 15 212 20 280 2 30 7 93 10 140 3 47 8 108 10 135 2 28 7 95 10 150 4 55 8 115 10 135 2 19 6 80 10 135 3 55 8 116 10 135 2 19 6 80 10 135 11 176 25 366 30 425 4 41 14 176 20 275 1 22 6 92 11 155 4 63 8 137 8 165 l1 50 -655 0 c-360 0 -682 -1 -715 -3z"/>
<path d="M9116 9281 c-2 -3 -7 -51 -10 -106 -4 -55 -9 -127 -11 -160 -3 -33 -7 -96 -10 -140 -3 -44 -7 -102 -10 -130 -2 -27 -7 -90 -10 -140 -3 -49 -8 -121 -11 -160 -8 -116 -12 -175 -20 -285 -3 -58 -8 -108 -11 -112 -5 -9 -26 -9 447 -8 1318 2 1473 5 1475 20 1 8 6 69 9 134 4 66 9 140 11 165 2 25 6 84 9 131 3 47 9 132 13 190 4 58 7 166 7 240 -1 117 -4 142 -23 185 -27 60 -72 110 -126 137 -91 47 -103 48 -938 46 -433 0 -789 -3 -791 -7z"/>
<path d="M8979 7496 c-2 -18 -8 -107 -24 -336 -13 -192 -17 -249 -20 -280 -2 -19 -6 -82 -10 -140 -3 -58 -8 -121 -10 -140 -2 -19 -6 -87 -10 -150 -4 -63 -8 -121 -10 -130 -2 -8 -6 -69 -10 -135 -3 -66 -8 -136 -10 -155 -2 -19 -6 -78 -9 -130 -8 -114 -14 -203 -21 -290 -2 -36 -7 -101 -10 -145 -4 -44 -8 -105 -10 -135 -6 -81 -15 -216 -20 -285 -2 -33 -6 -96 -10 -140 -3 -44 -8 -114 -10 -155 -3 -41 -8 -95 -10 -120 -2 -25 -7 -94 -10 -155 -3 -60 -7 -121 -10 -135 -2 -14 -6 -74 -10 -135 -4 -60 -8 -128 -10 -150 -2 -22 -7 -85 -10 -140 -3 -55 -8 -122 -10 -150 -2 -27 -6 -85 -9 -127 -4 -43 -8 -111 -11 -150 -6 -77 -10 -127 -19 -273 -4 -49 -8 -112 -11 -140 -2 -27 -7 -94 -11 -149 -3 -54 -7 -116 -9 -138 l-3 -39 955 3 c525 1 957 6 959 10 3 4 7 40 9 80 2 40 7 105 10 143 3 39 7 106 10 150 3 44 8 105 10 135 5 62 12 154 20 280 3 47 8 110 10 140 2 30 7 93 10 140 3 47 7 110 10 140 2 30 7 93 10 140 3 47 8 110 10 140 2 30 7 93 10 140 3 47 8 108 10 135 2 28 7 91 10 140 3 50 8 115 10 145 3 30 7 93 10 140 3 47 8 105 10 130 2 25 7 90 10 145 4 55 8 120 10 145 2 25 7 88 10 140 4 52 8 111 10 130 2 19 6 85 10 145 4 61 8 128 10 150 2 22 6 85 10 140 3 55 8 117 10 138 3 21 7 78 10 125 3 48 7 116 10 152 3 36 7 97 10 136 5 77 13 195 20 289 8 99 20 273 30 425 4 52 8 112 10 133 l4 38 -959 -2 c-696 -1 -960 -5 -961 -13z"/>
</g>
</svg>