<svg xmlns="http://www.w3.org/2000/svg" width="97" height="97" viewBox="0 0 97 97">
    <defs>
        <linearGradient id="zfo66hoh4a" x1=".5" x2=".5" y2="1" gradientUnits="objectBoundingBox">
            <stop offset="0" stop-color="#e6d97d"/>
            <stop offset="1" stop-color="#b48d15"/>
        </linearGradient>
        <clipPath id="v1ryo7b4rb">
            <path data-name="Rectangle 34" transform="translate(.207 -.432)" style="fill:url(#zfo66hoh4a)" d="M0 0h97v97H0z"/>
        </clipPath>
    </defs>
    <g data-name="Group 62">
        <g data-name="Group 61" transform="translate(-.207 .432)" style="clip-path:url(#v1ryo7b4rb)">
            <path data-name="Path 66" d="M213.089 92.46c.56.008.777-.375.776-.9v-4.301c0-.536-.25-.9-.8-.877-.521.021-.7.42-.7.9v4.3c0 .492.207.867.731.874" transform="translate(-166.398 -67.649)" style="fill:url(#zfo66hoh4a)"/>
            <path data-name="Path 67" d="M337.621 240.978q-2.152-.009-4.3 0c-.473 0-.878.19-.892.715-.014.56.378.784.9.789.717.007 1.435 0 2.152 0 .717 0 1.435.007 2.152 0 .48-.006.878-.2.893-.724.017-.563-.383-.782-.9-.784" transform="translate(-260.516 -188.83)" style="fill:url(#zfo66hoh4a)"/>
            <path data-name="Path 68" d="M87.233 242.472c1.44.014 2.879.008 4.319 0 .52 0 .919-.233.9-.8-.016-.528-.42-.705-.9-.709h-2.16c-.72 0-1.44-.008-2.16 0-.492.007-.87.232-.871.752s.389.753.87.758" transform="translate(-67.635 -188.817)" style="fill:url(#zfo66hoh4a)"/>
            <path data-name="Path 69" d="M199.172 332.456c-.553 0-.766.394-.766.916v2.078c0 .74-.005 1.481 0 2.221 0 .488.216.864.735.875s.765-.361.769-.845c.014-1.457.007-2.914 0-4.372 0-.491-.224-.871-.738-.874" transform="translate(-155.458 -260.541)" style="fill:url(#zfo66hoh4a)"/>
            <path data-name="Path 70" d="M170.374 92.474c.568.012.758-.388.756-.913a496.557 496.557 0 0 1 0-4.228c0-.525-.186-.928-.74-.939s-.758.4-.76.914v2.078c0 .717.006 1.433 0 2.15-.005.52.183.926.742.938" transform="translate(-132.907 -67.66)" style="fill:url(#zfo66hoh4a)"/>
            <path data-name="Path 71" d="M156.4 332.462c-.55.016-.725.446-.721.957.006.693 0 1.386 0 2.078v2.15c0 .486.189.878.708.9.564.028.791-.367.794-.884.008-1.433 0-2.867 0-4.3 0-.533-.244-.92-.787-.9" transform="translate(-121.967 -260.545)" style="fill:url(#zfo66hoh4a)"/>
            <path data-name="Path 72" d="M337.644 283.74h-4.303c-.486 0-.877.187-.892.712-.016.558.367.79.892.791h4.3c.5 0 .87-.212.895-.724.028-.574-.379-.772-.9-.775" transform="translate(-260.535 -222.348)" style="fill:url(#zfo66hoh4a)"/>
            <path data-name="Path 73" d="M255.867 92.462c.521-.008.743-.368.747-.864V87.28c0-.544-.249-.9-.793-.893s-.707.417-.707.9v4.319c0 .5.217.865.752.856" transform="translate(-199.913 -67.654)" style="fill:url(#zfo66hoh4a)"/>
            <path data-name="Path 74" d="M91.6 283.735q-2.15-.007-4.3 0c-.5 0-.943.18-.93.75.013.546.418.757.942.753.693-.006 1.386 0 2.079 0 .741 0 1.482.01 2.222 0 .485-.009.861-.225.854-.753s-.371-.746-.866-.747" transform="translate(-67.64 -222.347)" style="fill:url(#zfo66hoh4a)"/>
            <path data-name="Path 75" d="M333.335 199.791q2.151.009 4.3 0c.487 0 .877-.217.879-.736 0-.556-.4-.771-.919-.772h-2.08c-.717 0-1.434.008-2.151 0-.52-.007-.932.191-.949.732s.4.777.916.779" transform="translate(-260.511 -155.364)" style="fill:url(#zfo66hoh4a)"/>
            <path data-name="Path 76" d="M141.944 92.467c.581 0 .77-.441.766-.99-.012-1.385-.005-2.771 0-4.157 0-.513-.177-.932-.741-.944s-.755.407-.758.917v2.15c0 .669.009 1.338 0 2.007-.009.537.14 1.014.741 1.018" transform="translate(-110.622 -67.645)" style="fill:url(#zfo66hoh4a)"/>
            <path data-name="Path 77" d="M87.37 199.794c1.392.007 2.784 0 4.176 0 .511 0 .935-.179.936-.758s-.411-.751-.923-.751h-4.176c-.536 0-.99.161-.978.784.011.589.472.724.965.726" transform="translate(-67.668 -155.367)" style="fill:url(#zfo66hoh4a)"/>
            <path data-name="Path 78" d="M91.644 269.483q-2.185.01-4.37 0c-.514 0-.861.254-.873.74s.345.742.854.737c.74-.007 1.481 0 2.221 0 .716 0 1.433-.006 2.149 0 .511.006.863-.238.869-.733s-.333-.749-.85-.747" transform="translate(-67.665 -211.178)" style="fill:url(#zfo66hoh4a)"/>
            <path data-name="Path 79" d="M228.337 335.537v-2.3a.738.738 0 1 0-1.472 0q-.008 2.232 0 4.464a.738.738 0 0 0 .711.833c.5.014.773-.3.763-.834-.013-.72 0-1.44 0-2.16" transform="translate(-177.768 -260.528)" style="fill:url(#zfo66hoh4a)"/>
            <path data-name="Path 80" d="M184.764 92.476c.505-.008.721-.391.72-.89V87.27c0-.494-.22-.872-.738-.882s-.743.351-.74.857v2.158c0 .719.013 1.439 0 2.158-.013.545.219.922.763.914" transform="translate(-144.171 -67.655)" style="fill:url(#zfo66hoh4a)"/>
            <path data-name="Path 81" d="M227.456 92.47c.506 0 .75-.341.742-.859-.01-.72 0-1.439 0-2.159s-.01-1.44 0-2.159c.01-.546-.245-.912-.775-.911s-.695.41-.693.9c.006 1.439.009 2.879 0 4.318 0 .512.213.869.727.87" transform="translate(-177.665 -67.65)" style="fill:url(#zfo66hoh4a)"/>
            <path data-name="Path 82" d="M298.564 92.466c.547 0 .76-.406.755-.933-.007-.7 0-1.391 0-2.086 0-.719-.008-1.439 0-2.158.008-.546-.244-.9-.786-.9s-.707.405-.707.892v4.245c0 .52.172.948.742.943" transform="translate(-233.392 -67.653)" style="fill:url(#zfo66hoh4a)"/>
            <path data-name="Path 83" d="M335.552 269.481c-.744 0-1.487.005-2.231 0-.508 0-.861.214-.866.735s.341.746.854.744q2.159-.009 4.318 0c.535 0 .931-.209.91-.766-.019-.5-.391-.723-.9-.715-.7.011-1.391 0-2.087 0" transform="translate(-260.541 -211.174)" style="fill:url(#zfo66hoh4a)"/>
            <path data-name="Path 84" d="M335.532 226.818c-.74 0-1.481.017-2.22-.006-.523-.016-.864.23-.881.714s.32.752.835.751q2.221-.005 4.441 0c.484 0 .807-.249.81-.707a.724.724 0 0 0-.836-.756c-.716.009-1.433 0-2.149 0" transform="translate(-260.521 -177.729)" style="fill:url(#zfo66hoh4a)"/>
            <path data-name="Path 85" d="M89.451 226.828c-.72 0-1.44.008-2.159 0-.522-.008-.845.259-.847.749 0 .464.319.715.808.714 1.487 0 2.975-.008 4.462 0a.705.705 0 0 0 .806-.713c.01-.5-.309-.763-.84-.752-.743.015-1.487 0-2.231 0" transform="translate(-67.7 -177.738)" style="fill:url(#zfo66hoh4a)"/>
            <path data-name="Path 86" d="M91.626 212.675c-1.438.012-2.877.015-4.315 0-.51-.006-.9.193-.917.687-.015.525.364.794.909.788.719-.008 1.438 0 2.157 0s1.439-.01 2.157 0c.521.011.859-.243.865-.736s-.334-.744-.857-.74" transform="translate(-67.66 -166.646)" style="fill:url(#zfo66hoh4a)"/>
            <path data-name="Path 87" d="M184.954 332.43c-.53-.008-.766.36-.759.91q.028 2.149 0 4.3c-.006.521.244.871.716.881.53.012.769-.368.753-.914-.021-.716-.005-1.433-.006-2.149s-.019-1.434.006-2.149c.018-.524-.227-.87-.71-.878" transform="translate(-144.323 -260.52)" style="fill:url(#zfo66hoh4a)"/>
            <path data-name="Path 88" d="M171.534 335.482v-2.155c0-.52-.257-.844-.763-.834-.465.009-.711.317-.709.811q.01 2.192 0 4.383c0 .5.2.89.714.885.535-.005.769-.4.761-.933-.011-.718 0-1.437 0-2.155" transform="translate(-133.244 -260.569)" style="fill:url(#zfo66hoh4a)"/>
            <path data-name="Path 89" d="M155.55 89.428c0 .744.008 1.488 0 2.232a.7.7 0 0 0 .712.806.684.684 0 0 0 .737-.774q-.01-2.268 0-4.536a.692.692 0 0 0-.742-.777.716.716 0 0 0-.7.818c.017.743 0 1.488 0 2.232" transform="translate(-121.865 -67.647)" style="fill:url(#zfo66hoh4a)"/>
            <path data-name="Path 90" d="M198.917 92.476c.495 0 .742-.34.729-.864-.019-.743 0-1.487 0-2.231 0-.72-.014-1.44.006-2.159a.715.715 0 0 0-.69-.833c-.474-.014-.769.3-.766.834.008 1.463.014 2.927 0 4.39-.006.527.234.863.729.862" transform="translate(-155.291 -67.656)" style="fill:url(#zfo66hoh4a)"/>
            <path data-name="Path 91" d="M241.578 92.447c.5-.013.752-.326.735-.859-.023-.719-.006-1.439-.006-2.158v-2.3a.7.7 0 0 0-.687-.768.709.709 0 0 0-.772.762 342.472 342.472 0 0 0 0 4.533c0 .479.257.8.731.793" transform="translate(-188.727 -67.631)" style="fill:url(#zfo66hoh4a)"/>
            <path data-name="Path 92" d="M333.281 184.172c-.5 0-.8.241-.815.7-.011.5.31.763.836.754.719-.012 1.439 0 2.158 0h2.3a.7.7 0 0 0 .782-.737.707.707 0 0 0-.8-.715q-2.23.015-4.46 0" transform="translate(-260.549 -144.305)" style="fill:url(#zfo66hoh4a)"/>
            <path data-name="Path 93" d="M284.3 92.454c.447-.01.708-.341.7-.836-.013-.743 0-1.487 0-2.231v-2.23c0-.493-.254-.8-.721-.8a.726.726 0 0 0-.747.8c-.008 1.487 0 2.974-.006 4.462a.739.739 0 0 0 .782.834" transform="translate(-222.183 -67.634)" style="fill:url(#zfo66hoh4a)"/>
            <path data-name="Path 94" d="M337.64 212.676q-2.156.02-4.313 0c-.52 0-.869.234-.866.732s.327.756.855.744c.718-.017 1.437 0 2.156 0s1.438-.007 2.157 0c.541.007.926-.242.915-.776-.01-.5-.4-.7-.9-.7" transform="translate(-260.545 -166.648)" style="fill:url(#zfo66hoh4a)"/>
            <path data-name="Path 95" d="M91.709 255.4c-.743.011-1.487 0-2.231 0h-2.3a.681.681 0 0 0-.758.69.706.706 0 0 0 .767.76c1.511 0 3.023 0 4.534.006a.7.7 0 0 0 .786-.737.7.7 0 0 0-.8-.721" transform="translate(-67.677 -200.141)" style="fill:url(#zfo66hoh4a)"/>
            <path data-name="Path 96" d="M337.66 255.39c-1.463.007-2.926.015-4.389 0-.5-.006-.821.244-.841.681a.716.716 0 0 0 .818.78c.744-.01 1.487 0 2.231 0 .72 0 1.44-.015 2.159.005.525.014.862-.239.878-.728.017-.512-.345-.736-.855-.733" transform="translate(-260.519 -200.128)" style="fill:url(#zfo66hoh4a)"/>
            <path data-name="Path 97" d="M142.3 332.457c-.54-.008-.764.354-.756.9q.029 2.149 0 4.3c-.008.525.244.867.707.882.53.018.771-.363.756-.909-.02-.716 0-1.432 0-2.149s-.015-1.433 0-2.149c.014-.513-.206-.87-.706-.877" transform="translate(-110.89 -260.541)" style="fill:url(#zfo66hoh4a)"/>
            <path data-name="Path 98" d="M213.506 332.5a.688.688 0 0 0-.728.783q.011 2.229 0 4.457c0 .486.231.823.69.833a.724.724 0 0 0 .769-.832c-.008-.743 0-1.486 0-2.229s-.008-1.486 0-2.229a.692.692 0 0 0-.731-.784" transform="translate(-166.728 -260.574)" style="fill:url(#zfo66hoh4a)"/>
            <path data-name="Path 99" d="M256.2 332.489c-.514-.01-.743.336-.733.854.014.743 0 1.486 0 2.229 0 .7.016 1.391-.006 2.085-.016.507.183.884.686.9.544.022.776-.345.771-.894a200.12 200.12 0 0 1 0-4.314c.007-.526-.225-.854-.722-.864" transform="translate(-200.186 -260.567)" style="fill:url(#zfo66hoh4a)"/>
            <path data-name="Path 100" d="M87.353 157.07h2.087c.72 0 1.439-.007 2.159 0 .5.006.888-.2.893-.717.006-.54-.369-.776-.908-.774q-2.123.012-4.246 0c-.529 0-.924.206-.93.761-.007.588.436.731.945.729" transform="translate(-67.67 -121.893)" style="fill:url(#zfo66hoh4a)"/>
            <path data-name="Path 101" d="M285.388 335.494v-2.157c0-.5-.221-.868-.739-.865s-.751.347-.749.863q.009 2.158 0 4.315c0 .529.2.941.765.907.541-.032.73-.456.72-.977-.012-.695 0-1.39 0-2.085" transform="translate(-222.481 -260.553)" style="fill:url(#zfo66hoh4a)"/>
            <path data-name="Path 102" d="M87.314 171.415q2.123-.008 4.247 0c.531 0 .927-.214.919-.763-.007-.507-.378-.731-.889-.723-.72.011-1.44 0-2.16 0-.7 0-1.392.011-2.088 0-.52-.011-.95.151-.953.717 0 .541.389.773.923.771" transform="translate(-67.657 -133.138)" style="fill:url(#zfo66hoh4a)"/>
            <path data-name="Path 103" d="M91.659 298.092c-1.464.012-2.927.008-4.391 0-.517 0-.864.244-.842.747s.362.728.889.708c.719-.027 1.439-.007 2.159-.008s1.44-.022 2.159.006c.528.02.864-.219.875-.711s-.323-.748-.849-.744" transform="translate(-67.684 -233.604)" style="fill:url(#zfo66hoh4a)"/>
            <path data-name="Path 104" d="M87.279 185.62c.719-.013 1.44 0 2.159 0 .744 0 1.488-.007 2.231 0 .526.007.838-.244.821-.76-.016-.474-.321-.7-.815-.694a238.04 238.04 0 0 1-4.391 0c-.522-.006-.866.234-.871.723s.346.743.864.734" transform="translate(-67.676 -144.299)" style="fill:url(#zfo66hoh4a)"/>
            <path data-name="Path 105" d="M337.728 298.108h-4.535a.728.728 0 1 0 .024 1.45c.719-.019 1.439 0 2.159 0 .768 0 1.536-.015 2.3.006a.714.714 0 0 0 .821-.705.7.7 0 0 0-.773-.746" transform="translate(-260.504 -233.616)" style="fill:url(#zfo66hoh4a)"/>
            <path data-name="Path 106" d="M333.353 157.066c.716-.01 1.433 0 2.149 0 .693 0 1.385-.01 2.078 0 .519.009.947-.158.951-.72 0-.6-.446-.773-.988-.771-1.385.006-2.771.011-4.156 0-.527 0-.932.2-.948.732s.382.768.915.761" transform="translate(-260.526 -121.887)" style="fill:url(#zfo66hoh4a)"/>
            <path data-name="Path 107" d="M87.242 142.967c.743-.018 1.487 0 2.231 0s1.488-.008 2.231 0a.676.676 0 0 0 .785-.719c0-.482-.287-.729-.78-.728h-4.463c-.523 0-.853.268-.833.758a.716.716 0 0 0 .828.695" transform="translate(-67.675 -110.867)" style="fill:url(#zfo66hoh4a)"/>
            <path data-name="Path 108" d="M333.3 142.965c.744-.009 1.488 0 2.231 0s1.488-.011 2.231 0a.716.716 0 0 0 .831-.69c.019-.488-.3-.764-.827-.762-1.488.006-2.975 0-4.463 0-.491 0-.786.241-.785.724a.674.674 0 0 0 .781.723" transform="translate(-260.592 -110.869)" style="fill:url(#zfo66hoh4a)"/>
            <path data-name="Path 109" d="M271.039 335.5v-2.231c0-.475-.239-.817-.712-.825a.737.737 0 0 0-.775.838q-.006 2.2 0 4.39c0 .5.243.867.758.864s.731-.373.727-.876v-2.159" transform="translate(-211.229 -260.532)" style="fill:url(#zfo66hoh4a)"/>
            <path data-name="Path 110" d="M337.636 169.929c-1.433.01-2.866.013-4.3 0-.516 0-.884.227-.9.714-.013.516.341.789.892.776.692-.017 1.385 0 2.078 0 .74 0 1.481-.011 2.221 0 .554.011.906-.274.9-.786 0-.5-.395-.705-.9-.7" transform="translate(-260.528 -133.14)" style="fill:url(#zfo66hoh4a)"/>
            <path data-name="Path 111" d="M298.879 332.461a.7.7 0 0 0-.732.79c0 1.488.009 2.975 0 4.463a.725.725 0 0 0 .7.83c.5.023.766-.308.76-.834-.009-.744 0-1.488 0-2.231s-.012-1.488 0-2.231a.686.686 0 0 0-.723-.787" transform="translate(-233.645 -260.545)" style="fill:url(#zfo66hoh4a)"/>
            <path data-name="Path 112" d="M269.43 91.633c0 .478.192.8.688.821.529.019.772-.286.765-.814-.01-.743 0-1.487 0-2.23 0-.719-.017-1.44.006-2.158.017-.529-.25-.863-.726-.869s-.739.337-.734.862a267.55 267.55 0 0 1 0 4.389" transform="translate(-211.133 -67.65)" style="fill:url(#zfo66hoh4a)"/>
            <path data-name="Path 113" d="M242.692 335.577v-2.155c0-.528-.213-.908-.788-.889-.548.018-.7.419-.7.9v4.239c0 .514.168.942.743.931.555-.011.754-.421.75-.943v-2.083" transform="translate(-189.008 -260.6)" style="fill:url(#zfo66hoh4a)"/>
            <path data-name="Path 114" d="M160.695 118.15h-39.024a3.185 3.185 0 0 0-3.184 3.184v39.024a3.185 3.185 0 0 0 3.184 3.186h39.024a3.186 3.186 0 0 0 3.186-3.186v-39.024a3.185 3.185 0 0 0-3.186-3.184m-3.419 8.377a2.62 2.62 0 1 1 2.632-2.609 2.571 2.571 0 0 1-2.632 2.609" transform="translate(-92.816 -92.552)" style="fill:url(#zfo66hoh4a)"/>
            <path data-name="Path 115" d="M292.4 137.57a1.558 1.558 0 1 0 1.563 1.554 1.583 1.583 0 0 0-1.563-1.554" transform="translate(-227.932 -107.775)" style="fill:url(#zfo66hoh4a)"/>
            <path data-name="Path 116" d="M92.131 96.609H4.478A4.483 4.483 0 0 1 0 92.131V4.478A4.483 4.483 0 0 1 4.478 0h87.653a4.483 4.483 0 0 1 4.478 4.478v87.653a4.483 4.483 0 0 1-4.478 4.478M4.478 2.161a2.32 2.32 0 0 0-2.317 2.317v87.653a2.32 2.32 0 0 0 2.317 2.317h87.653a2.319 2.319 0 0 0 2.317-2.317V4.478a2.319 2.319 0 0 0-2.317-2.317z" transform="translate(.062 .062)" style="fill:url(#zfo66hoh4a)"/>
            <path data-name="Path 117" d="M21.634 24.268a3.134 3.134 0 1 1 3.134-3.134 3.137 3.137 0 0 1-3.134 3.134m0-4.106a.973.973 0 1 0 .973.973.974.974 0 0 0-.973-.973" transform="translate(-14.439 -14.048)" style="fill:url(#zfo66hoh4a)"/>
            <path data-name="Path 118" d="M22.134 406.268a3.134 3.134 0 1 1 3.134-3.134 3.137 3.137 0 0 1-3.134 3.134m0-4.106a.973.973 0 1 0 .973.973.974.974 0 0 0-.973-.973" transform="translate(-14.831 -313.487)" style="fill:url(#zfo66hoh4a)"/>
            <path data-name="Path 119" d="M115.837 120.171h-70a4.338 4.338 0 0 1-4.333-4.333v-70a4.338 4.338 0 0 1 4.329-4.338h70a4.338 4.338 0 0 1 4.333 4.333v70a4.338 4.338 0 0 1-4.333 4.333m-70-76.509a2.175 2.175 0 0 0-2.172 2.172v70a2.175 2.175 0 0 0 2.172 2.172h70a2.175 2.175 0 0 0 2.172-2.172v-70a2.175 2.175 0 0 0-2.172-2.172z" transform="translate(-32.468 -32.469)" style="fill:url(#zfo66hoh4a)"/>
            <path data-name="Path 120" d="M402.634 24.268a3.134 3.134 0 1 1 3.134-3.134 3.137 3.137 0 0 1-3.134 3.134m0-4.106a.973.973 0 1 0 .973.973.974.974 0 0 0-.973-.973" transform="translate(-313.095 -14.048)" style="fill:url(#zfo66hoh4a)"/>
            <path data-name="Path 121" d="M403.134 406.268a3.134 3.134 0 1 1 3.134-3.134 3.137 3.137 0 0 1-3.134 3.134m0-4.106a.973.973 0 1 0 .973.973.974.974 0 0 0-.973-.973" transform="translate(-313.487 -313.487)" style="fill:url(#zfo66hoh4a)"/>
        </g>
    </g>
</svg>
