<svg data-name="Group 58" xmlns="http://www.w3.org/2000/svg" width="98.792" height="94.28" viewBox="0 0 98.792 94.28">
    <defs>
        <linearGradient id="seraewc58a" x1=".5" y1="-.471" x2=".5" y2="1.298" gradientUnits="objectBoundingBox">
            <stop offset="0" stop-color="#e6d97d"/>
            <stop offset="1" stop-color="#b48d15"/>
        </linearGradient>
        <clipPath id="y18frzhygb">
            <path data-name="Rectangle 30" style="fill:url(#seraewc58a)" d="M0 0h98.792v94.28H0z"/>
        </clipPath>
    </defs>
    <g data-name="Group 57" style="clip-path:url(#y18frzhygb)">
        <path data-name="Path 53" d="M530.58 562.851a1.963 1.963 0 0 0 3.567-1.641l-9.6-20.871a1.965 1.965 0 0 0-1.784-1.142 1.959 1.959 0 0 0-1.781 1.145l-9.542 20.814a1.962 1.962 0 0 0 3.56 1.635l3.067-6.69h5.872a1.963 1.963 0 0 0 0-3.925h-4.073l2.895-6.314z" transform="translate(-477.584 -503.685)" style="fill:url(#seraewc58a)"/>
        <path data-name="Path 54" d="M895.5 522.129v22.125a1.963 1.963 0 1 0 3.925 0v-22.125a1.963 1.963 0 0 0-3.925 0" transform="translate(-836.52 -485.907)" style="fill:url(#seraewc58a)"/>
        <path data-name="Path 55" d="M502.515 688.13h-.005a1.963 1.963 0 0 0-1.962 1.958 39.441 39.441 0 0 1-11.617 27.956 39.991 39.991 0 0 1-36.662 10.679l2.2-5.173-14.6 1.788 8.847 11.752 2-4.7a43.6 43.6 0 0 0 53.764-42.3 1.963 1.963 0 0 0-1.958-1.968" transform="translate(-410.896 -642.809)" style="fill:url(#seraewc58a)"/>
        <path data-name="Path 56" d="M96.69 47.906h.051A1.964 1.964 0 0 0 98.7 46a39.5 39.5 0 0 1 11.6-27.028 40 40 0 0 1 38.17-10.321l-1.927 5.12 14.513-2.4L151.731 0l-1.866 4.956a43.944 43.944 0 0 0-42.335 11.237 43.426 43.426 0 0 0-12.751 29.7 1.962 1.962 0 0 0 1.911 2.012" transform="translate(-88.536 .002)" style="fill:url(#seraewc58a)"/>
        <path data-name="Path 57" d="M30.58 795.209v-13.124a3.936 3.936 0 0 0-1.963-3.4l-11.364-6.561a3.935 3.935 0 0 0-3.928 0l-11.362 6.561a3.936 3.936 0 0 0-1.963 3.4v13.125a3.929 3.929 0 0 0 1.963 3.4l11.364 6.562a3.93 3.93 0 0 0 3.925 0l11.364-6.562a3.926 3.926 0 0 0 1.965-3.4m-2.617 0a1.309 1.309 0 0 1-.654 1.132L15.941 802.9a1.3 1.3 0 0 1-1.306 0l-11.367-6.559a1.312 1.312 0 0 1-.652-1.132v-13.124a1.311 1.311 0 0 1 .654-1.133l11.364-6.562a1.3 1.3 0 0 1 1.308 0l11.366 6.562a1.311 1.311 0 0 1 .654 1.133z" transform="translate(0 -720.779)" style="fill:url(#seraewc58a)"/>
        <path data-name="Path 58" d="m88.719 930.611-8.919 4.9-8.92-4.9a1.308 1.308 0 1 0-1.257 2.295l8.831 4.849v9.94a1.308 1.308 0 0 0 2.617 0v-9.9l8.906-4.89a1.308 1.308 0 1 0-1.257-2.295" transform="translate(-64.402 -869.172)" style="fill:url(#seraewc58a)"/>
        <path data-name="Path 59" d="m1064.265 156.82-11.366-6.562a3.942 3.942 0 0 0-3.925 0l-11.366 6.562a3.934 3.934 0 0 0-1.963 3.4v13.125a3.936 3.936 0 0 0 1.963 3.4l11.366 6.562a3.938 3.938 0 0 0 3.925 0l11.366-6.562a3.936 3.936 0 0 0 1.963-3.4v-13.127a3.934 3.934 0 0 0-1.963-3.4m-.654 16.523a1.311 1.311 0 0 1-.654 1.133l-11.366 6.562a1.314 1.314 0 0 1-1.308 0l-11.366-6.562a1.311 1.311 0 0 1-.654-1.133v-13.123a1.31 1.31 0 0 1 .654-1.132l11.366-6.562a1.314 1.314 0 0 1 1.308 0l11.366 6.562a1.31 1.31 0 0 1 .654 1.132z" transform="translate(-967.435 -139.872)" style="fill:url(#seraewc58a)"/>
        <path data-name="Path 60" d="m1124.363 308.724-8.919 4.9-8.92-4.9a1.308 1.308 0 1 0-1.257 2.295l8.834 4.85v9.939a1.308 1.308 0 0 0 2.617 0v-9.9l8.9-4.889a1.308 1.308 0 1 0-1.257-2.295" transform="translate(-1031.837 -288.242)" style="fill:url(#seraewc58a)"/>
    </g>
</svg>
