<svg width="17" height="16" viewBox="0 0 17 16" fill="none" xmlns="http://www.w3.org/2000/svg">
<path d="M16.0356 0H7.86892C7.59288 0 7.36892 0.223958 7.36892 0.5V3.20833H1.03558C0.759542 3.20833 0.535583 3.43229 0.535583 3.70833V15.5C0.535583 15.776 0.759542 16 1.03558 16H9.199C9.47504 16 9.699 15.776 9.699 15.5V12.7962H16.0356C16.3116 12.7962 16.5356 12.5723 16.5356 12.2962V0.5C16.5356 0.223958 16.3116 0 16.0356 0ZM8.699 15H1.53558V9.9375H5.39968L3.7947 11.543C3.66449 11.6732 3.66449 11.8841 3.7947 12.0143C3.8598 12.0794 3.94509 12.112 4.03038 12.112C4.11566 12.112 4.20095 12.0794 4.26605 12.0143L6.43947 9.84025C6.4704 9.80941 6.49493 9.77246 6.5119 9.73145C6.54559 9.64998 6.54559 9.55835 6.5119 9.47689C6.49493 9.43587 6.4704 9.39893 6.43947 9.36808L4.26605 7.19401C4.13584 7.0638 3.92491 7.0638 3.7947 7.19401C3.66449 7.32422 3.66449 7.53516 3.7947 7.66536L5.39968 9.27083H1.53558V4.20833H7.8657C7.86684 4.20833 7.86778 4.20898 7.86892 4.20898C7.87006 4.20898 7.87099 4.20833 7.87213 4.20833H8.699V15ZM9.699 11.7962V3.70833C9.699 3.43229 9.47504 3.20833 9.199 3.20833H8.36892V1H15.5356V6.0651H11.6695L13.2752 4.45898C13.4054 4.32878 13.4054 4.11784 13.2752 3.98763C13.145 3.85742 12.934 3.85742 12.8038 3.98763L10.6297 6.16235C10.5988 6.1932 10.5743 6.23014 10.5573 6.27116C10.5236 6.35262 10.5236 6.44425 10.5573 6.52572C10.5743 6.56673 10.5988 6.60368 10.6297 6.63452L12.8038 8.80925C12.8689 8.87435 12.9542 8.9069 13.0395 8.9069C13.1248 8.9069 13.2101 8.87435 13.2752 8.80925C13.4054 8.67904 13.4054 8.4681 13.2752 8.33789L11.6695 6.73177H15.5356V11.7962H9.699Z" fill="#8C8F8F"/>
</svg>
