<svg width="18" height="18" viewBox="0 0 18 18" fill="none" xmlns="http://www.w3.org/2000/svg">
<path d="M16.7876 0.692383H8.30679C8.02013 0.692383 7.78756 0.924955 7.78756 1.21161V4.02411H1.21064C0.923978 4.02411 0.691406 4.25669 0.691406 4.54334V16.7885C0.691406 17.0752 0.923978 17.3078 1.21064 17.3078H9.68803C9.97468 17.3078 10.2073 17.0752 10.2073 16.7885V13.9808H16.7876C17.0742 13.9808 17.3068 13.7482 17.3068 13.4615V1.21161C17.3068 0.924955 17.0742 0.692383 16.7876 0.692383ZM9.16879 16.2693H1.72987V11.0121H5.74258L4.07587 12.6793C3.94065 12.8145 3.94065 13.0336 4.07587 13.1688C4.14348 13.2364 4.23205 13.2702 4.32061 13.2702C4.40918 13.2702 4.49775 13.2364 4.56535 13.1688L6.82237 10.9111C6.85448 10.8791 6.87996 10.8407 6.89758 10.7981C6.93257 10.7135 6.93257 10.6184 6.89758 10.5338C6.87996 10.4912 6.85448 10.4528 6.82237 10.4208L4.56535 8.16309C4.43014 8.02787 4.21109 8.02787 4.07587 8.16309C3.94065 8.2983 3.94065 8.51735 4.07587 8.65257L5.74258 10.3198H1.72987V5.06257H8.30345C8.30464 5.06257 8.30561 5.06325 8.30679 5.06325C8.30797 5.06325 8.30895 5.06257 8.31013 5.06257H9.16879V16.2693ZM10.2073 12.9423V4.54334C10.2073 4.25669 9.97468 4.02411 9.68803 4.02411H8.82602V1.73084H16.2683V6.99076H12.2536L13.921 5.32287C14.0562 5.18765 14.0562 4.9686 13.921 4.83338C13.7858 4.69817 13.5667 4.69817 13.4315 4.83338L11.1738 7.09175C11.1417 7.12378 11.1162 7.16215 11.0986 7.20474C11.0636 7.28933 11.0636 7.38449 11.0986 7.46909C11.1162 7.51168 11.1417 7.55005 11.1738 7.58208L13.4315 9.84044C13.4991 9.90805 13.5877 9.94186 13.6762 9.94186C13.7648 9.94186 13.8534 9.90805 13.921 9.84044C14.0562 9.70523 14.0562 9.48618 13.921 9.35096L12.2536 7.68307H16.2683V12.9423H10.2073Z" fill="#00AAA6"/>
</svg>
