<svg width="58" height="57" viewBox="0 0 58 57" fill="none" xmlns="http://www.w3.org/2000/svg">
<path d="M34.4835 25.0363L40.2003 19.3196V24.0947C40.2003 24.8301 40.7965 25.4264 41.5319 25.4264C42.2674 25.4264 42.8636 24.8301 42.8636 24.0947V16.1046C42.8636 15.3692 42.2674 14.7729 41.5319 14.7729H33.5419C32.8064 14.7729 32.2102 15.3692 32.2102 16.1046C32.2102 16.8401 32.8064 17.4363 33.5419 17.4363H38.317L32.6003 23.153C32.0802 23.6731 32.0802 24.5163 32.6003 25.0363C33.1203 25.5564 33.9635 25.5564 34.4835 25.0363Z" fill="black"/>
<path d="M14.4545 41.8504V33.8603C14.4545 33.1248 15.0507 32.5286 15.7862 32.5286C16.5217 32.5286 17.1179 33.1248 17.1179 33.8603V38.6354L22.8346 32.9187C23.3547 32.3986 24.1978 32.3986 24.7179 32.9187C25.238 33.4387 25.238 34.2819 24.7179 34.8019L19.0012 40.5187H23.7763C24.5117 40.5187 25.1079 41.1149 25.1079 41.8504C25.1079 42.5858 24.5117 43.182 23.7763 43.182H15.7862C15.4454 43.182 15.1046 43.052 14.8446 42.792C14.7169 42.6643 14.6206 42.5172 14.5556 42.3601C14.4905 42.2031 14.4545 42.0309 14.4545 41.8504Z" fill="black"/>
<path d="M32.6003 34.8019L38.317 40.5187H33.5419C32.8064 40.5187 32.2102 41.1149 32.2102 41.8504C32.2102 42.5858 32.8064 43.182 33.5419 43.182H41.5319C41.8727 43.182 42.2136 43.052 42.4736 42.792C42.6013 42.6643 42.6976 42.5172 42.7626 42.3601C42.8277 42.2031 42.8636 42.0309 42.8636 41.8504V33.8603C42.8636 33.1248 42.2674 32.5286 41.5319 32.5286C40.7965 32.5286 40.2003 33.1248 40.2003 33.8603V38.6354L34.4835 32.9187C33.9635 32.3986 33.1203 32.3986 32.6003 32.9187C32.0802 33.4387 32.0802 34.2819 32.6003 34.8019Z" fill="black"/>
<path d="M17.1179 19.3196L22.8346 25.0363C23.3547 25.5564 24.1978 25.5564 24.7179 25.0363C25.238 24.5163 25.238 23.6731 24.7179 23.153L19.0012 17.4363H23.7763C24.5117 17.4363 25.1079 16.8401 25.1079 16.1046C25.1079 15.3692 24.5117 14.7729 23.7763 14.7729H15.7862C15.0507 14.7729 14.4545 15.3692 14.4545 16.1046V24.0947C14.4545 24.8301 15.0507 25.4264 15.7862 25.4264C16.5217 25.4264 17.1179 24.8301 17.1179 24.0947V19.3196Z" fill="black"/>
</svg>
