<svg width="32" height="33" viewBox="0 0 32 33" fill="none" xmlns="http://www.w3.org/2000/svg">
<path d="M15.4931 8.88746C15.8008 9.01767 16 9.31454 16 9.64282V23.3571C16 23.6854 15.8008 23.9822 15.4931 24.1124C15.1855 24.2426 14.8283 24.1813 14.5843 23.9563L10.0669 19.7914H8.34729C8.0001 19.7914 7.68868 19.5821 7.56365 19.2648C7.22516 18.4058 7.03998 17.4731 7.03998 16.4999C7.03998 15.5268 7.22516 14.5941 7.56365 13.7351C7.68868 13.4178 8.0001 13.2085 8.34729 13.2085H10.0669L14.5843 9.04362C14.8283 8.81862 15.1855 8.75725 15.4931 8.88746Z" fill="black"/>
<path d="M19.6739 13.4495C19.3459 13.1282 18.814 13.1282 18.486 13.4495C18.158 13.7709 18.158 14.2919 18.486 14.6132L20.412 16.5L18.486 18.3867C18.158 18.708 18.158 19.229 18.486 19.5504C18.814 19.8717 19.3459 19.8717 19.6739 19.5504L21.6 17.6637L23.526 19.5504C23.854 19.8717 24.3859 19.8717 24.7139 19.5504C25.042 19.229 25.042 18.708 24.7139 18.3867L22.7879 16.5L24.7139 14.6132C25.042 14.2919 25.042 13.7709 24.7139 13.4495C24.3859 13.1282 23.854 13.1282 23.526 13.4495L21.6 15.3363L19.6739 13.4495Z" fill="black"/>
</svg>
