<svg xmlns="http://www.w3.org/2000/svg" className="icon" height="512" viewBox="0 0 1024 1024"><path d="M929.445 656.478L677.481 510.784l251.964-145.693c37.021-21.412 49.821-69.26 28.45-106.333l-3.881-6.722c-21.371-37.072-69.16-49.902-106.17-28.5L595.89 369.227V77.852C595.89 35.04 560.912.01 518.17.01h-7.753c-42.752 0-77.73 35.04-77.73 77.842V369.24L180.732 223.535c-37.02-21.401-84.798-8.58-106.17 28.501l-3.881 6.722c-21.37 37.072-8.57 84.921 28.45 106.333l251.965 145.693L99.13 656.467C62.11 677.879 49.31 725.728 70.68 762.8l3.882 6.722c21.37 37.072 69.148 49.903 106.17 28.491L432.686 652.33v291.387c0 42.813 34.978 77.841 77.73 77.841h7.753c42.742 0 77.72-35.028 77.72-77.841V652.33l251.964 145.683c37.021 21.412 84.8 8.581 106.17-28.49l3.882-6.723c21.36-37.061 8.57-84.921-28.46-106.322" fill="#FD6823"/></svg>