<?xml version="1.0" encoding="utf-8"?>
<!-- Generator: Adobe Illustrator 22.1.0, SVG Export Plug-In . SVG Version: 6.00 Build 0)  -->
<svg version="1.1" id="Layer_1" xmlns="http://www.w3.org/2000/svg" xmlns:xlink="http://www.w3.org/1999/xlink" x="0px" y="0px"
	 viewBox="0 0 62 48" style="enable-background:new 0 0 62 48;" xml:space="preserve">
<style type="text/css">
	.st0{clip-path:url(#SVGID_2_);}
	.st1{clip-path:url(#SVGID_4_);}
</style>
<g>
	<defs>
		<path id="SVGID_1_" d="M58.6,39.4H3.4V3h55.3V39.4z M60.1,0H1.9C1,0,0.4,0.7,0.4,1.5v39.3c0,0.8,0.7,1.5,1.5,1.5h13.9L14,45.8
			c-0.4,0.7-0.1,1.6,0.6,2c0.2,0.1,0.5,0.2,0.7,0.2c0.5,0,1.1-0.3,1.3-0.8l2.5-4.8h23.4l2.5,4.8c0.3,0.5,0.8,0.8,1.3,0.8
			c0.2,0,0.5-0.1,0.7-0.2c0.7-0.4,1-1.3,0.6-2l-1.8-3.4h14.2c0.8,0,1.5-0.7,1.5-1.5V1.5C61.6,0.7,61,0,60.1,0z"/>
	</defs>
	<clipPath id="SVGID_2_">
		<use xlink:href="#SVGID_1_"  style="overflow:visible;"/>
	</clipPath>
	<g class="st0">
		<defs>
			<rect id="SVGID_3_" x="-561" y="-130" width="1600" height="900"/>
		</defs>
		<clipPath id="SVGID_4_">
			<use xlink:href="#SVGID_3_"  style="overflow:visible;"/>
		</clipPath>
		<rect x="-4.6" y="-5" class="st1" width="71.3" height="57.9"/>
	</g>
</g>
</svg>
