<?xml version="1.0" encoding="utf-8"?>
<!-- Generator: Adobe Illustrator 24.0.3, SVG Export Plug-In . SVG Version: 6.00 Build 0)  -->
<svg version="1.1" id="OutLine" xmlns="http://www.w3.org/2000/svg" xmlns:xlink="http://www.w3.org/1999/xlink" x="0px" y="0px"
	 viewBox="0 0 64 64" style="enableBackground:new 0 0 64 64;" xml:space="preserve">
<style type="text/css">
	.st0{fill:#FFFFFF;}
</style>
<path d="M57.8,62.8c0.6,0,1-0.5,1-1V1.9c0-0.6-0.5-1-1-1H6.2c-0.6,0-1,0.5-1,1v59.9c0,0.6,0.5,1,1,1H57.8z M7.2,2.9h49.5V5H7.2V2.9z
	 M7.2,7h49.5v10.3H7.2V7z M7.2,19.4h17.7c0.7,2.4,3.5,4.1,7.1,4.1s6.4-1.7,7.1-4.1h17.7v37.2H7.2V19.4z M7.2,58.6h49.5v2.1H7.2V58.6
	z"/>
<rect x="7.2" y="19.4" className="st0" width="49.5" height="40.9"/>
</svg>
